<?xml version="1.0" encoding="UTF-8" standalone="no"?>
<svg width="16px" height="16px" viewBox="0 0 16 16" version="1.1" xmlns="http://www.w3.org/2000/svg" xmlns:xlink="http://www.w3.org/1999/xlink" xmlns:sketch="http://www.bohemiancoding.com/sketch/ns">
    <!-- Generator: Sketch 3.3.3 (12081) - http://www.bohemiancoding.com/sketch -->
    <title>Group</title>
    <desc>Created with Sketch.</desc>
    <defs></defs>
    <g id="Page-1" stroke="none" stroke-width="1" fill="none" fill-rule="evenodd" sketch:type="MSPage">
        <g id="Imported-Layers" sketch:type="MSLayerGroup" transform="translate(0.000000, -1.000000)" fill="#FFFFFF">
            <g id="Group" sketch:type="MSShapeGroup">
                <path d="M5.72,5.73 C9.83,3.46 14.05,3.08 15.14,4.87 C16.24,6.67 13.79,9.97 9.67,12.25 C5.55,14.52 1.34,14.89 0.26,13.09 C-0.83,11.29 1.62,8 5.72,5.73 L5.72,5.73 Z M5.95,6.1 C9.59,4.09 13.32,3.75 14.3,5.34 C15.27,6.93 13.09,9.86 9.44,11.87 C5.8,13.89 2.06,14.22 1.1,12.62 C0.14,11.03 2.31,8.11 5.95,6.1 L5.95,6.1 Z" id="Fill-1"></path>
                <path d="M5.27,9.03 C5.27,7.74 6.38,6.69 7.73,6.69 C9.09,6.69 10.19,7.74 10.19,9.03 C10.19,10.32 9.09,11.37 7.73,11.37 C6.38,11.37 5.27,10.32 5.27,9.03" id="Fill-2"></path>
                <path d="M5.8,13.02 C7.95,14.47 10.13,15.29 11.88,15.44 C11.86,15.33 10.39,15.5 6.02,12.57 C2.37,10.11 0.2,6.55 1.17,4.62 C2.13,2.69 5.86,3.13 9.5,5.58 C12.68,7.73 14.75,10.71 14.58,12.72 C13.79,12.72 13.16,13.32 13.16,14.07 C13.16,14.82 13.79,15.42 14.58,15.42 C15.36,15.42 16,14.82 16,14.07 C16,13.64 15.79,13.26 15.47,13.01 C15.53,10.75 13.23,7.49 9.73,5.13 C5.62,2.36 1.41,1.88 0.32,4.05 C-0.77,6.22 1.68,10.24 5.8,13.02" id="Fill-3"></path>
                <path d="M3.89,8.03 C5.11,3.64 7.8,0.52 9.9,1.06 C12,1.6 12.71,5.59 11.49,9.97 C10.27,14.36 7.57,17.48 5.47,16.94 C3.37,16.4 2.66,12.41 3.89,8.03 L3.89,8.03 Z M4.32,8.14 C5.4,4.25 7.79,1.49 9.65,1.96 C11.51,2.44 12.14,5.98 11.06,9.86 C9.97,13.75 7.59,16.51 5.72,16.04 C3.86,15.56 3.24,12.02 4.32,8.14 L4.32,8.14 Z" id="Fill-4"></path>
            </g>
        </g>
    </g>
</svg>